<?xml version="1.0" encoding="UTF-8" standalone="no"?>
<!-- Created with Inkscape (http://www.inkscape.org/) -->

<svg
   width="45mm"
   height="45mm"
   viewBox="0 0 44.999999 45.000001"
   version="1.1"
   id="svg1"
   xml:space="preserve"
   inkscape:version="1.3.2 (1:1.3.2+202311252150+091e20ef0f)"
   sodipodi:docname="cabrnet.svg"
   inkscape:export-filename="cabrnet_2.png"
   inkscape:export-xdpi="96"
   inkscape:export-ydpi="96"
   xmlns:inkscape="http://www.inkscape.org/namespaces/inkscape"
   xmlns:sodipodi="http://sodipodi.sourceforge.net/DTD/sodipodi-0.dtd"
   xmlns="http://www.w3.org/2000/svg"
   xmlns:svg="http://www.w3.org/2000/svg"><sodipodi:namedview
     id="namedview1"
     pagecolor="#ffffff"
     bordercolor="#000000"
     borderopacity="0.25"
     inkscape:showpageshadow="2"
     inkscape:pageopacity="0.0"
     inkscape:pagecheckerboard="0"
     inkscape:deskcolor="#d1d1d1"
     inkscape:document-units="mm"
     inkscape:zoom="1.9351394"
     inkscape:cx="89.657624"
     inkscape:cy="-81.131106"
     inkscape:window-width="2490"
     inkscape:window-height="1376"
     inkscape:window-x="1990"
     inkscape:window-y="27"
     inkscape:window-maximized="1"
     inkscape:current-layer="layer1" /><defs
     id="defs1"><marker
       style="overflow:visible"
       id="Arrow2Mend"
       refX="0"
       refY="0"
       orient="auto"
       inkscape:stockid="Arrow2Mend"
       inkscape:isstock="true"
       viewBox="0 0 6.9304588 5.1962256"
       markerWidth="6.9304585"
       markerHeight="5.1962252"
       preserveAspectRatio="xMidYMid"><path
         transform="scale(-0.6)"
         d="M 8.7185878,4.0337352 -2.2072895,0.01601326 8.7185884,-4.0017078 c -1.7454984,2.3720609 -1.7354408,5.6174519 -6e-7,8.035443 z"
         style="fill:context-stroke;fill-rule:evenodd;stroke:context-stroke;stroke-width:0.625;stroke-linejoin:round"
         id="path1340" /></marker><marker
       style="overflow:visible"
       id="marker1587"
       refX="0"
       refY="0"
       orient="auto"
       inkscape:stockid="Arrow2Mend"
       inkscape:isstock="true"><path
         transform="scale(-0.6)"
         d="M 8.7185878,4.0337352 -2.2072895,0.01601326 8.7185884,-4.0017078 c -1.7454984,2.3720609 -1.7354408,5.6174519 -6e-7,8.035443 z"
         style="fill:context-stroke;fill-rule:evenodd;stroke:context-stroke;stroke-width:0.625;stroke-linejoin:round"
         id="path1585" /></marker><marker
       style="overflow:visible"
       id="marker1599"
       refX="0"
       refY="0"
       orient="auto"
       inkscape:stockid="Arrow2Mend"
       inkscape:isstock="true"><path
         transform="scale(-0.6)"
         d="M 8.7185878,4.0337352 -2.2072895,0.01601326 8.7185884,-4.0017078 c -1.7454984,2.3720609 -1.7354408,5.6174519 -6e-7,8.035443 z"
         style="fill:context-stroke;fill-rule:evenodd;stroke:context-stroke;stroke-width:0.625;stroke-linejoin:round"
         id="path1597" /></marker><marker
       style="overflow:visible"
       id="Arrow2Mend-0"
       refX="0"
       refY="0"
       orient="auto"
       inkscape:stockid="Arrow2Mend"
       inkscape:isstock="true"><path
         transform="scale(-0.6)"
         d="M 8.7185878,4.0337352 -2.2072895,0.01601326 8.7185884,-4.0017078 c -1.7454984,2.3720609 -1.7354408,5.6174519 -6e-7,8.035443 z"
         style="fill:context-stroke;fill-rule:evenodd;stroke:context-stroke;stroke-width:0.625;stroke-linejoin:round"
         id="path1340-5" /></marker></defs><g
     inkscape:label="Layer 1"
     inkscape:groupmode="layer"
     id="layer1"
     transform="translate(-149.73973,-295.01886)"><circle
       style="fill:#fedf8c;fill-opacity:1;stroke:none;stroke-width:0.264999;stroke-linejoin:round"
       id="path1"
       cx="172.23973"
       cy="317.51886"
       r="22.3675" /><circle
       style="fill:#dc5065;fill-opacity:1;stroke:#ab2141;stroke-width:1.101;stroke-linejoin:round;stroke-dasharray:none;stroke-opacity:1"
       id="path1-32-59-1"
       cx="172.23973"
       cy="333.4075"
       r="5.9283419" /><circle
       style="fill:#dc5065;fill-opacity:1;stroke:#ab2141;stroke-width:1.101;stroke-linejoin:round;stroke-dasharray:none;stroke-opacity:1"
       id="path1-32-22-3"
       cx="167.71228"
       cy="325.82132"
       r="5.9283419" /><circle
       style="fill:#73b1da;fill-opacity:1;stroke:#5585b6;stroke-width:1.101;stroke-linejoin:round;stroke-dasharray:none;stroke-opacity:1"
       id="path1-32-22-2-21"
       cx="163.35385"
       cy="318.30133"
       r="5.9283419" /><circle
       style="fill:#dc5065;fill-opacity:1;stroke:#ab2141;stroke-width:1.101;stroke-linejoin:round;stroke-dasharray:none;stroke-opacity:1"
       id="path1-32-22-2-2-9"
       cx="159.42545"
       cy="309.78137"
       r="5.9283419" /><circle
       style="fill:#dc5065;fill-opacity:1;stroke:#ab2141;stroke-width:1.101;stroke-linejoin:round;stroke-dasharray:none;stroke-opacity:1"
       id="path1-32-89-6-4-6-1"
       cx="185.054"
       cy="309.78137"
       r="5.9283419" /><circle
       style="fill:#dc5065;fill-opacity:1;stroke:#ab2141;stroke-width:1.101;stroke-linejoin:round;stroke-dasharray:none;stroke-opacity:1"
       id="path1-32-89-6-49"
       cx="181.12561"
       cy="318.30133"
       r="5.9283419" /><circle
       style="fill:#73b1da;fill-opacity:1;stroke:#5585b6;stroke-width:1.101;stroke-linejoin:round;stroke-dasharray:none;stroke-opacity:1"
       id="path1-32-54-10"
       cx="176.76717"
       cy="325.82132"
       r="5.9283419" /><path
       style="fill:#000000;fill-opacity:1;stroke:#000000;stroke-width:0.264999;stroke-linejoin:round"
       id="path24"
       d="m 178.81182,298.72038 c -0.0176,-0.0437 -0.0407,-0.0899 -0.0383,-0.13823 0.0128,-0.24977 0.31066,-0.37888 0.50984,-0.48477 0.44493,-0.17612 0.92927,-0.29314 1.41559,-0.30386 0.36883,-0.008 0.45608,0.0222 0.81458,0.0793 0.0726,0.0248 0.61658,0.18763 0.66558,0.28916 0.0378,0.0783 -0.18784,-0.13156 -0.26343,-0.082 -0.0619,0.0405 0.084,0.12049 0.10012,0.18908 0.0388,0.16497 -0.0384,0.23019 -0.12044,0.36414 -0.0684,0.0528 -0.12976,0.11454 -0.20533,0.15812 -0.49337,0.28452 -1.22797,0.31797 -1.78798,0.29544 -0.22973,-0.009 -0.45818,-0.0366 -0.68727,-0.0548 -0.67627,-0.0908 -0.946,-0.11536 -1.63101,-0.25837 -0.31978,-0.0668 -0.63656,-0.14542 -0.9532,-0.22399 -0.98571,-0.2446 -1.96015,-0.52777 -2.93679,-0.80116 -1.42199,-0.38253 -2.84624,-0.78816 -4.31423,-0.99368 -0.25234,-0.0354 -0.50674,-0.0568 -0.76011,-0.0851 -1.13824,-0.10624 -2.28533,-0.0399 -3.39844,0.2054 -0.20345,0.0448 -0.40346,0.1021 -0.60521,0.15316 -0.51707,0.15058 -1.02827,0.33986 -1.47207,0.63397 -0.17904,0.11864 -0.42964,0.31634 -0.52886,0.51256 -0.0427,0.0845 -0.0417,0.18243 -0.0626,0.27365 0.0228,0.0888 0.027,0.1835 0.0684,0.26634 0.097,0.19424 0.29095,0.35285 0.48546,0.458 0.3044,0.16458 0.61194,0.32758 0.9368,0.45436 0.29332,0.11448 0.95706,0.18899 1.24748,0.23047 1.44777,0.14803 2.90927,0.0473 4.3486,-0.12871 0.33038,-0.0404 0.65948,-0.0893 0.98923,-0.13401 1.59916,-0.24829 3.20024,-0.52101 4.76379,-0.92445 0.27018,-0.0697 0.537,-0.15014 0.80549,-0.2252 0.60629,-0.18914 1.21465,-0.38961 1.74781,-0.72481 0.22307,-0.14026 0.43471,-0.30356 0.58874,-0.51145 0.0581,-0.0785 0.092,-0.17015 0.13801,-0.25523 0.009,-0.0803 0.0365,-0.16064 0.0274,-0.24096 -0.0188,-0.16655 -0.12354,-0.31375 -0.2743,-0.40486 -0.25812,-0.156 -0.52726,-0.2981 -0.8067,-0.41859 -0.21574,-0.093 -0.5444,-0.0988 -0.77018,-0.11684 -0.39099,0.0226 -0.54588,0.0125 -0.9324,0.11603 -0.60586,0.16221 -1.16708,0.46055 -1.67462,0.80119 -0.23281,0.15625 -0.4526,0.32847 -0.6789,0.49271 -1.32545,1.04255 -2.63013,2.11247 -3.87165,3.24087 -0.23058,0.20956 -0.4549,0.42495 -0.68235,0.63743 -0.52205,0.55732 -1.12706,1.09222 -1.45217,1.78168 -0.14463,0.30671 -0.22946,0.65226 -0.13285,0.98549 0.0425,0.14675 0.14873,0.27091 0.22309,0.40636 0.6314,0.51694 0.63463,0.57446 1.70479,0.96168 0.28026,0.1014 0.5866,0.12926 0.88512,0.16438 0.67265,0.0791 1.52186,0.0882 2.19155,0.0123 0.38161,-0.0432 0.75456,-0.13686 1.13184,-0.20528 0.42482,-0.13365 1.2907,-0.32088 1.62771,-0.70265 0.10793,-0.12226 0.17713,-0.31738 0.11005,-0.46253 -0.26558,-0.5746 -1.61686,-0.87432 -1.96659,-1.00149 0,0 0.0233,0.0168 0.0233,0.0168 v 0 c 0.35112,0.11973 1.06875,0.27811 1.27967,0.65705 0.0701,0.12594 0.0242,0.30902 -0.0712,0.41978 -0.32926,0.38224 -1.17625,0.55889 -1.59499,0.68949 -0.38748,0.0578 -0.77174,0.13882 -1.16243,0.1736 -0.65744,0.0586 -1.54168,0.0443 -2.2021,-0.0417 -0.29519,-0.0385 -0.57711,-0.14892 -0.8737,-0.17659 -0.0381,-0.004 0.0751,0.11716 0.0421,0.099 -0.16709,-0.092 -0.30773,-0.21996 -0.4616,-0.32994 -0.0884,-0.13142 -0.20887,-0.24851 -0.26528,-0.39424 -0.12862,-0.3323 -0.0593,-0.65192 0.081,-0.96845 0.30671,-0.69197 0.90526,-1.22495 1.41898,-1.7818 0.2218,-0.21488 0.43853,-0.43435 0.66541,-0.64466 0.23052,-0.21367 0.46929,-0.41959 0.70643,-0.62698 1.02664,-0.89781 2.07407,-1.77688 3.16575,-2.60678 0.22654,-0.16223 0.44699,-0.33204 0.67963,-0.48669 0.50069,-0.33285 1.05475,-0.63286 1.65267,-0.7884 0.37769,-0.0983 0.54189,-0.0859 0.92346,-0.10199 0.13453,0.0132 0.27071,0.0159 0.4036,0.0393 0.11998,0.0211 0.24197,0.14274 0.35208,0.0939 0.0844,-0.0375 -0.15402,-0.19661 -0.23117,-0.14755 -0.0745,0.0474 0.1508,0.0972 0.20582,0.16368 0.1301,0.15712 0.0895,0.23773 0.0792,0.4201 -0.0425,0.0812 -0.0718,0.16961 -0.12745,0.24377 -0.15905,0.21209 -0.36276,0.34967 -0.59967,0.48268 -0.54733,0.3073 -1.15701,0.50933 -1.75823,0.70285 -0.26731,0.0748 -0.53296,0.15493 -0.80192,0.22447 -1.55819,0.40294 -3.15315,0.67872 -4.7469,0.92762 -0.32947,0.0442 -0.65828,0.0927 -0.9884,0.13251 -1.43543,0.1732 -2.8922,0.27282 -4.33523,0.11817 -0.22361,-0.033 -0.44913,-0.0564 -0.67082,-0.0992 -0.18834,-0.0363 -0.36575,-0.12545 -0.55768,-0.13738 -0.0558,-0.004 0.1682,0.13361 0.11838,0.11006 -0.18592,-0.088 -0.39582,-0.24681 -0.49926,-0.42172 -0.0439,-0.0743 -0.0538,-0.16187 -0.0806,-0.2428 0.0157,-0.0842 0.009,-0.17469 0.0471,-0.25258 0.0919,-0.18868 0.34261,-0.38465 0.51186,-0.49636 0.43977,-0.29022 0.94704,-0.4741 1.45847,-0.62308 0.54301,-0.13622 0.68033,-0.1837 1.24279,-0.27076 0.90668,-0.14035 1.82737,-0.16071 2.74159,-0.074 0.58813,0.0654 0.9373,0.0949 1.52182,0.19797 1.18507,0.20889 2.33849,0.54675 3.49658,0.85282 1.27957,0.3474 2.557,0.70295 3.85323,0.99436 0.31032,0.0698 0.62016,0.14227 0.93336,0.19997 0.26342,0.0486 0.53033,0.0791 0.79549,0.11854 0.62278,0.0523 1.23302,0.11222 1.85671,0.0231 0.2823,-0.0403 0.51291,-0.0948 0.74932,-0.24137 0.0811,-0.0502 0.14506,-0.12098 0.21759,-0.18146 0.036,-0.0718 0.0938,-0.13741 0.10784,-0.21549 0.0262,-0.14586 -0.0533,-0.37065 -0.17522,-0.46634 -0.0969,-0.0761 -0.75437,-0.49947 -1.02848,-0.60929 -0.11789,-0.0472 -0.24342,-0.0762 -0.36512,-0.11419 -0.13416,-0.0195 -0.26729,-0.0465 -0.40249,-0.0584 -0.52524,-0.0461 -1.13548,-0.006 -1.63723,0.1511 -0.10022,0.0312 -0.19531,0.075 -0.29297,0.11255 -0.0799,0.0425 -0.16351,0.0795 -0.23977,0.12738 -0.14164,0.089 -0.31298,0.22888 -0.36788,0.38756 -0.019,0.0548 1.6e-4,0.10225 0.0137,0.15366 z" /><circle
       style="fill:#dc5065;fill-opacity:1;stroke:#ab2141;stroke-width:1.101;stroke-linejoin:round;stroke-dasharray:none;stroke-opacity:1"
       id="path1-32-89-6-4-7"
       cx="176.04845"
       cy="310.83972"
       r="5.9283419" /><circle
       style="fill:#dc5065;fill-opacity:1;stroke:#ab2141;stroke-width:1.101;stroke-linejoin:round;stroke-dasharray:none;stroke-opacity:1"
       id="path1-32-54-1-5"
       cx="172.23973"
       cy="319.35968"
       r="5.9283419" /><circle
       style="fill:#73b1da;fill-opacity:1;stroke:#5585b6;stroke-width:1.101;stroke-linejoin:round;stroke-dasharray:none;stroke-opacity:1"
       id="path1-32-54-1-8-7"
       cx="168.43098"
       cy="310.83972"
       r="5.9283419" /><circle
       style="fill:#1e1e1e;fill-opacity:1;stroke:#1e1e1e;stroke-width:1.101;stroke-linejoin:round;stroke-dasharray:none;stroke-opacity:1"
       id="path1-32-89-6-4-6-6"
       cx="172.23973"
       cy="319.35968"
       r="0.7926746" /><circle
       style="fill:#fedf8c;fill-opacity:1;stroke:#1e1e1e;stroke-width:1.101;stroke-linejoin:round;stroke-dasharray:none;stroke-opacity:1"
       id="path1-32-89-6-4-6-6-9"
       cx="176.76717"
       cy="325.82132"
       r="1.2278482" /><circle
       style="fill:#fedf8c;fill-opacity:1;stroke:#1e1e1e;stroke-width:1.101;stroke-linejoin:round;stroke-dasharray:none;stroke-opacity:1"
       id="path1-32-89-6-4-6-6-9-9"
       cx="168.43098"
       cy="310.83972"
       r="1.2278482" /><circle
       style="fill:#fedf8c;fill-opacity:1;stroke:#1e1e1e;stroke-width:1.101;stroke-linejoin:round;stroke-dasharray:none;stroke-opacity:1"
       id="path1-32-89-6-4-6-6-9-0"
       cx="163.35385"
       cy="318.30133"
       r="1.2278482" /><path
       style="fill:#002d47;fill-opacity:1;stroke:#1e1e1e;stroke-width:1.101;stroke-linejoin:round;stroke-dasharray:none;stroke-opacity:1"
       d="m 164.85437,318.7097 6.16621,0.57033"
       id="path3" /><path
       style="fill:#002d47;fill-opacity:1;stroke:#1e1e1e;stroke-width:1.101;stroke-linejoin:round;stroke-dasharray:none;stroke-opacity:1"
       d="m 169.16148,311.82249 2.68189,6.66942"
       id="path3-1"
       sodipodi:nodetypes="cc" /><path
       style="fill:#002d47;fill-opacity:1;stroke:#1e1e1e;stroke-width:1.101;stroke-linejoin:round;stroke-dasharray:none;stroke-opacity:1"
       d="m 172.75034,320.1363 3.39846,5.03198"
       id="path3-9" /></g></svg>
