<?xml version="1.0" encoding="utf-8"?>
<svg xmlns="http://www.w3.org/2000/svg" width="3700" height="3700" class="segno"><path transform="scale(100)" class="qrline" stroke="#000" d="M4 4.5h7m3 0h3m2 0h1m2 0h2m2 0h7m-29 1h1m5 0h1m3 0h3m1 0h2m1 0h2m1 0h1m1 0h1m5 0h1m-29 1h1m1 0h3m1 0h1m2 0h1m2 0h1m4 0h1m1 0h1m2 0h1m1 0h3m1 0h1m-29 1h1m1 0h3m1 0h1m2 0h2m2 0h1m1 0h1m2 0h3m1 0h1m1 0h3m1 0h1m-29 1h1m1 0h3m1 0h1m3 0h7m5 0h1m1 0h3m1 0h1m-29 1h1m5 0h1m1 0h8m1 0h1m1 0h1m2 0h1m5 0h1m-29 1h7m1 0h1m1 0h1m1 0h1m1 0h1m1 0h1m1 0h1m1 0h1m1 0h7m-18 1h2m4 0h1m-18 1h1m2 0h1m1 0h2m1 0h3m4 0h2m1 0h2m1 0h1m1 0h1m-23 1h1m2 0h1m7 0h1m3 0h1m3 0h1m1 0h1m2 0h1m2 0h1m-29 1h2m2 0h1m1 0h2m11 0h1m1 0h1m2 0h4m-27 1h1m1 0h1m1 0h1m3 0h4m1 0h1m3 0h3m3 0h1m1 0h2m-28 1h1m5 0h1m1 0h1m1 0h3m4 0h1m2 0h3m2 0h1m1 0h2m-29 1h4m3 0h1m1 0h4m4 0h5m-22 1h1m2 0h1m2 0h1m1 0h2m1 0h2m3 0h2m2 0h1m1 0h7m-29 1h1m1 0h1m6 0h1m2 0h3m2 0h1m2 0h3m2 0h1m1 0h1m-28 1h2m2 0h1m1 0h2m1 0h1m3 0h2m2 0h1m2 0h1m2 0h1m3 0h1m-27 1h1m3 0h1m2 0h2m1 0h1m4 0h1m3 0h4m1 0h1m2 0h1m-29 1h1m3 0h1m1 0h3m1 0h2m1 0h1m7 0h1m1 0h2m2 0h2m-27 1h1m1 0h2m1 0h1m1 0h5m1 0h4m1 0h2m1 0h2m2 0h2m-29 1h1m1 0h5m1 0h1m2 0h2m1 0h1m1 0h1m2 0h6m1 0h1m-19 1h1m1 0h4m2 0h2m1 0h2m3 0h1m1 0h3m-29 1h7m2 0h2m1 0h3m1 0h1m1 0h1m1 0h1m1 0h1m1 0h1m2 0h1m-28 1h1m5 0h1m1 0h1m1 0h1m1 0h2m4 0h1m1 0h1m3 0h3m-27 1h1m1 0h3m1 0h1m3 0h1m3 0h1m1 0h2m2 0h5m2 0h2m-29 1h1m1 0h3m1 0h1m1 0h3m1 0h1m1 0h1m4 0h2m1 0h6m-28 1h1m1 0h3m1 0h1m2 0h1m2 0h1m4 0h1m1 0h2m3 0h3m1 0h1m-29 1h1m5 0h1m2 0h5m2 0h6m2 0h1m2 0h1m-28 1h7m1 0h3m1 0h1m2 0h1m1 0h2m1 0h6m1 0h1"/></svg>
